<mxfile host="65bd71144e" scale="4" border="0">
    <diagram id="2pkDhd71fD2mC2tWStdZ" name="Page-1">
        <mxGraphModel dx="771" dy="626" grid="1" gridSize="10" guides="1" tooltips="1" connect="1" arrows="1" fold="1" page="1" pageScale="1" pageWidth="827" pageHeight="1169" background="#FFFFFF" math="0" shadow="0">
            <root>
                <mxCell id="0"/>
                <mxCell id="1" parent="0"/>
                <mxCell id="OmCYWnrhbO7qevd_RyAj-18" style="edgeStyle=none;rounded=0;orthogonalLoop=1;jettySize=auto;html=1;exitX=0;exitY=0.5;exitDx=0;exitDy=0;entryX=0.5;entryY=0.5;entryDx=0;entryDy=0;entryPerimeter=0;endArrow=none;endFill=0;endSize=10;strokeColor=#000000;" parent="1" source="O_CSJ5SETcwsMR54zyhG-13" target="OmCYWnrhbO7qevd_RyAj-15" edge="1">
                    <mxGeometry relative="1" as="geometry"/>
                </mxCell>
                <mxCell id="O_CSJ5SETcwsMR54zyhG-13" value="Visualizzazione impianti acquistati" style="ellipse;whiteSpace=wrap;html=1;strokeColor=#000000;" parent="1" vertex="1">
                    <mxGeometry x="350" y="400" width="110" height="60" as="geometry"/>
                </mxCell>
                <mxCell id="OmCYWnrhbO7qevd_RyAj-33" style="edgeStyle=none;rounded=0;orthogonalLoop=1;jettySize=auto;html=1;exitX=0;exitY=0.5;exitDx=0;exitDy=0;endArrow=none;endFill=0;endSize=10;entryX=0.5;entryY=0.5;entryDx=0;entryDy=0;entryPerimeter=0;strokeColor=#000000;" parent="1" source="O_CSJ5SETcwsMR54zyhG-15" target="OmCYWnrhbO7qevd_RyAj-15" edge="1">
                    <mxGeometry relative="1" as="geometry">
                        <mxPoint x="300" y="480" as="targetPoint"/>
                    </mxGeometry>
                </mxCell>
                <mxCell id="O_CSJ5SETcwsMR54zyhG-15" value="Visualizzazione misurazioni su tabella" style="ellipse;whiteSpace=wrap;html=1;strokeColor=#000000;" parent="1" vertex="1">
                    <mxGeometry x="350" y="480" width="110" height="60" as="geometry"/>
                </mxCell>
                <mxCell id="OmCYWnrhbO7qevd_RyAj-32" style="edgeStyle=none;rounded=0;orthogonalLoop=1;jettySize=auto;html=1;entryX=0;entryY=0.5;entryDx=0;entryDy=0;endArrow=none;endFill=0;endSize=10;exitX=0.5;exitY=0.5;exitDx=0;exitDy=0;exitPerimeter=0;strokeColor=#000000;" parent="1" source="OmCYWnrhbO7qevd_RyAj-15" target="OmCYWnrhbO7qevd_RyAj-27" edge="1">
                    <mxGeometry relative="1" as="geometry">
                        <mxPoint x="300" y="450" as="sourcePoint"/>
                    </mxGeometry>
                </mxCell>
                <mxCell id="OmCYWnrhbO7qevd_RyAj-15" value="Cliente" style="shape=umlActor;verticalLabelPosition=bottom;verticalAlign=top;html=1;outlineConnect=0;perimeterSpacing=14;strokeColor=#000000;" parent="1" vertex="1">
                    <mxGeometry x="260" y="400" width="30" height="60" as="geometry"/>
                </mxCell>
                <mxCell id="OmCYWnrhbO7qevd_RyAj-23" style="edgeStyle=none;rounded=0;orthogonalLoop=1;jettySize=auto;html=1;exitX=0.5;exitY=0.5;exitDx=0;exitDy=0;exitPerimeter=0;entryX=1;entryY=0.5;entryDx=0;entryDy=0;endArrow=none;endFill=0;endSize=10;strokeColor=#000000;" parent="1" source="OmCYWnrhbO7qevd_RyAj-16" target="O_CSJ5SETcwsMR54zyhG-13" edge="1">
                    <mxGeometry relative="1" as="geometry">
                        <mxPoint x="600" y="414" as="targetPoint"/>
                    </mxGeometry>
                </mxCell>
                <mxCell id="OmCYWnrhbO7qevd_RyAj-48" style="edgeStyle=none;rounded=0;orthogonalLoop=1;jettySize=auto;html=1;exitX=0.5;exitY=0.5;exitDx=0;exitDy=0;exitPerimeter=0;entryX=1;entryY=0.5;entryDx=0;entryDy=0;endArrow=none;endFill=0;endSize=10;strokeColor=#000000;" parent="1" source="OmCYWnrhbO7qevd_RyAj-16" target="O_CSJ5SETcwsMR54zyhG-15" edge="1">
                    <mxGeometry relative="1" as="geometry">
                        <mxPoint x="600" y="550" as="targetPoint"/>
                    </mxGeometry>
                </mxCell>
                <mxCell id="sVOuRwzDo-dUhApLFRC5-1" style="rounded=0;orthogonalLoop=1;jettySize=auto;html=1;exitX=0.5;exitY=0.5;exitDx=0;exitDy=0;exitPerimeter=0;entryX=0.969;entryY=0.32;entryDx=0;entryDy=0;strokeColor=#000000;endArrow=none;endFill=0;entryPerimeter=0;" parent="1" source="OmCYWnrhbO7qevd_RyAj-16" target="OmCYWnrhbO7qevd_RyAj-27" edge="1">
                    <mxGeometry relative="1" as="geometry"/>
                </mxCell>
                <mxCell id="OmCYWnrhbO7qevd_RyAj-16" value="Ardeeno DataLayer" style="shape=umlActor;verticalLabelPosition=bottom;verticalAlign=top;html=1;outlineConnect=0;strokeColor=#000000;" parent="1" vertex="1">
                    <mxGeometry x="690" y="400" width="30" height="60" as="geometry"/>
                </mxCell>
                <mxCell id="OmCYWnrhbO7qevd_RyAj-22" value="Dashboard" style="ellipse;whiteSpace=wrap;html=1;strokeColor=#000000;" parent="1" vertex="1">
                    <mxGeometry x="525" y="420" width="90" height="60" as="geometry"/>
                </mxCell>
                <mxCell id="OmCYWnrhbO7qevd_RyAj-25" value="&amp;lt;extend&amp;gt;" style="endArrow=open;endSize=8;endFill=0;html=1;rounded=0;dashed=1;exitX=0;exitY=0.5;exitDx=0;exitDy=0;strokeColor=#000000;entryX=1;entryY=1;entryDx=0;entryDy=0;startSize=0;" parent="1" source="OmCYWnrhbO7qevd_RyAj-22" target="O_CSJ5SETcwsMR54zyhG-13" edge="1">
                    <mxGeometry width="160" relative="1" as="geometry">
                        <mxPoint x="560" y="380" as="sourcePoint"/>
                        <mxPoint x="440" y="440" as="targetPoint"/>
                    </mxGeometry>
                </mxCell>
                <mxCell id="OmCYWnrhbO7qevd_RyAj-27" value="Visualizzazione misurazioni su heatmap" style="ellipse;whiteSpace=wrap;html=1;strokeColor=#000000;" parent="1" vertex="1">
                    <mxGeometry x="350" y="550" width="110" height="60" as="geometry"/>
                </mxCell>
                <mxCell id="OmCYWnrhbO7qevd_RyAj-52" style="edgeStyle=none;rounded=0;orthogonalLoop=1;jettySize=auto;html=1;exitX=0.5;exitY=0.5;exitDx=0;exitDy=0;exitPerimeter=0;entryX=1;entryY=0.5;entryDx=0;entryDy=0;endArrow=none;endFill=0;endSize=10;strokeColor=#000000;" parent="1" source="OmCYWnrhbO7qevd_RyAj-43" target="OmCYWnrhbO7qevd_RyAj-27" edge="1">
                    <mxGeometry relative="1" as="geometry">
                        <mxPoint x="590" y="620" as="targetPoint"/>
                    </mxGeometry>
                </mxCell>
                <mxCell id="OmCYWnrhbO7qevd_RyAj-43" value="OpenStreetMap" style="shape=umlActor;verticalLabelPosition=bottom;verticalAlign=top;html=1;outlineConnect=0;strokeColor=#000000;" parent="1" vertex="1">
                    <mxGeometry x="585" y="550" width="30" height="60" as="geometry"/>
                </mxCell>
            </root>
        </mxGraphModel>
    </diagram>
</mxfile>